<mxfile host="Electron" modified="2024-08-19T05:50:49.644Z" agent="Mozilla/5.0 (X11; Linux x86_64) AppleWebKit/537.36 (KHTML, like Gecko) draw.io/24.6.4 Chrome/124.0.6367.207 Electron/30.0.6 Safari/537.36" etag="gBr2rgfi2AbKe_yy9NRg" version="24.6.4" type="device">
  <diagram id="C5RBs43oDa-KdzZeNtuy" name="Page-1">
    <mxGraphModel dx="2607" dy="2286" grid="1" gridSize="10" guides="1" tooltips="1" connect="1" arrows="1" fold="1" page="1" pageScale="1" pageWidth="827" pageHeight="1169" math="0" shadow="0">
      <root>
        <mxCell id="WIyWlLk6GJQsqaUBKTNV-0" />
        <mxCell id="WIyWlLk6GJQsqaUBKTNV-1" parent="WIyWlLk6GJQsqaUBKTNV-0" />
        <mxCell id="FRSX6BakKpZdlfgSIoeK-4" value="Tarjeta" style="swimlane;fontStyle=1;align=center;verticalAlign=top;childLayout=stackLayout;horizontal=1;startSize=26;horizontalStack=0;resizeParent=1;resizeParentMax=0;resizeLast=0;collapsible=1;marginBottom=0;whiteSpace=wrap;html=1;" parent="WIyWlLk6GJQsqaUBKTNV-1" vertex="1">
          <mxGeometry x="-205" y="-1080" width="210" height="210" as="geometry" />
        </mxCell>
        <mxCell id="FRSX6BakKpZdlfgSIoeK-6" value="" style="line;strokeWidth=1;fillColor=none;align=left;verticalAlign=middle;spacingTop=-1;spacingLeft=3;spacingRight=3;rotatable=0;labelPosition=right;points=[];portConstraint=eastwest;strokeColor=inherit;" parent="FRSX6BakKpZdlfgSIoeK-4" vertex="1">
          <mxGeometry y="26" width="210" height="8" as="geometry" />
        </mxCell>
        <mxCell id="FRSX6BakKpZdlfgSIoeK-7" value="+ transaccion(): void&lt;div&gt;+ consultar(): String[][]&lt;br&gt;&lt;/div&gt;&lt;div&gt;+ autorizar(): void&lt;br&gt;&lt;/div&gt;&lt;div&gt;+ cancelar(): void&lt;br&gt;&lt;/div&gt;&lt;div&gt;+ sePuedeCancelar(): boolean&lt;br&gt;&lt;/div&gt;&lt;div&gt;+ superaLimite(): boolean&lt;br&gt;&lt;/div&gt;&lt;div&gt;+ puedeHacerMovimiento(): boolean&lt;br&gt;&lt;/div&gt;&lt;div&gt;+ generarTarjeta(): String&lt;br&gt;&lt;/div&gt;&lt;div&gt;+ limite(): double&lt;br&gt;&lt;/div&gt;&lt;div&gt;+ interes():&amp;nbsp;&lt;span style=&quot;background-color: initial;&quot;&gt;double&lt;/span&gt;&lt;br&gt;&lt;/div&gt;&lt;div&gt;+ monto():&amp;nbsp;&lt;span style=&quot;background-color: initial;&quot;&gt;double&lt;/span&gt;&lt;br&gt;&lt;/div&gt;" style="text;strokeColor=none;fillColor=none;align=left;verticalAlign=top;spacingLeft=4;spacingRight=4;overflow=hidden;rotatable=0;points=[[0,0.5],[1,0.5]];portConstraint=eastwest;whiteSpace=wrap;html=1;" parent="FRSX6BakKpZdlfgSIoeK-4" vertex="1">
          <mxGeometry y="34" width="210" height="176" as="geometry" />
        </mxCell>
        <mxCell id="FRSX6BakKpZdlfgSIoeK-8" value="&lt;i&gt;Gestion&lt;/i&gt;" style="swimlane;fontStyle=1;align=center;verticalAlign=top;childLayout=stackLayout;horizontal=1;startSize=26;horizontalStack=0;resizeParent=1;resizeParentMax=0;resizeLast=0;collapsible=1;marginBottom=0;whiteSpace=wrap;html=1;" parent="WIyWlLk6GJQsqaUBKTNV-1" vertex="1">
          <mxGeometry x="70" y="-850" width="190" height="130" as="geometry" />
        </mxCell>
        <mxCell id="FRSX6BakKpZdlfgSIoeK-9" value="- instruccion: String&lt;div&gt;&lt;div&gt;- parametros: String[]&lt;/div&gt;&lt;/div&gt;&lt;div&gt;&lt;div&gt;- datosGenerados: String[][]&lt;/div&gt;&lt;div&gt;&lt;br&gt;&lt;/div&gt;&lt;/div&gt;&lt;div&gt;&lt;br&gt;&lt;/div&gt;" style="text;strokeColor=none;fillColor=none;align=left;verticalAlign=top;spacingLeft=4;spacingRight=4;overflow=hidden;rotatable=0;points=[[0,0.5],[1,0.5]];portConstraint=eastwest;whiteSpace=wrap;html=1;" parent="FRSX6BakKpZdlfgSIoeK-8" vertex="1">
          <mxGeometry y="26" width="190" height="54" as="geometry" />
        </mxCell>
        <mxCell id="FRSX6BakKpZdlfgSIoeK-10" value="" style="line;strokeWidth=1;fillColor=none;align=left;verticalAlign=middle;spacingTop=-1;spacingLeft=3;spacingRight=3;rotatable=0;labelPosition=right;points=[];portConstraint=eastwest;strokeColor=inherit;" parent="FRSX6BakKpZdlfgSIoeK-8" vertex="1">
          <mxGeometry y="80" width="190" height="8" as="geometry" />
        </mxCell>
        <mxCell id="FRSX6BakKpZdlfgSIoeK-11" value="+ cambiarFormatoFecha(): String&lt;div&gt;+ fechaActual(): String&lt;br&gt;&lt;/div&gt;" style="text;strokeColor=none;fillColor=none;align=left;verticalAlign=top;spacingLeft=4;spacingRight=4;overflow=hidden;rotatable=0;points=[[0,0.5],[1,0.5]];portConstraint=eastwest;whiteSpace=wrap;html=1;" parent="FRSX6BakKpZdlfgSIoeK-8" vertex="1">
          <mxGeometry y="88" width="190" height="42" as="geometry" />
        </mxCell>
        <mxCell id="FRSX6BakKpZdlfgSIoeK-12" value="ArchivoEntrada" style="swimlane;fontStyle=1;align=center;verticalAlign=top;childLayout=stackLayout;horizontal=1;startSize=26;horizontalStack=0;resizeParent=1;resizeParentMax=0;resizeLast=0;collapsible=1;marginBottom=0;whiteSpace=wrap;html=1;" parent="WIyWlLk6GJQsqaUBKTNV-1" vertex="1">
          <mxGeometry x="240" y="-1140" width="270" height="130" as="geometry" />
        </mxCell>
        <mxCell id="FRSX6BakKpZdlfgSIoeK-13" value="- pathEntrada: String&lt;div&gt;- lineas: List&amp;lt;String&amp;gt;&lt;/div&gt;&lt;div&gt;- instrucciones: List&amp;lt;String[]&amp;gt;&lt;br&gt;&lt;div&gt;&lt;br&gt;&lt;/div&gt;&lt;div&gt;&lt;div&gt;&lt;br&gt;&lt;/div&gt;&lt;/div&gt;&lt;/div&gt;" style="text;strokeColor=none;fillColor=none;align=left;verticalAlign=top;spacingLeft=4;spacingRight=4;overflow=hidden;rotatable=0;points=[[0,0.5],[1,0.5]];portConstraint=eastwest;whiteSpace=wrap;html=1;" parent="FRSX6BakKpZdlfgSIoeK-12" vertex="1">
          <mxGeometry y="26" width="270" height="54" as="geometry" />
        </mxCell>
        <mxCell id="FRSX6BakKpZdlfgSIoeK-14" value="" style="line;strokeWidth=1;fillColor=none;align=left;verticalAlign=middle;spacingTop=-1;spacingLeft=3;spacingRight=3;rotatable=0;labelPosition=right;points=[];portConstraint=eastwest;strokeColor=inherit;" parent="FRSX6BakKpZdlfgSIoeK-12" vertex="1">
          <mxGeometry y="80" width="270" height="8" as="geometry" />
        </mxCell>
        <mxCell id="FRSX6BakKpZdlfgSIoeK-15" value="+ leerContenido(): void&lt;div&gt;- separarLinea(): String[]&lt;div&gt;&lt;br&gt;&lt;/div&gt;&lt;div&gt;&lt;br&gt;&lt;/div&gt;&lt;div&gt;&lt;div&gt;&lt;span style=&quot;color: rgba(0, 0, 0, 0); font-family: monospace; font-size: 0px; text-wrap: nowrap;&quot;&gt;%3CmxGraphModel%3E%3Croot%3E%3CmxCell%20id%3D%220%22%2F%3E%3CmxCell%20id%3D%221%22%20parent%3D%220%22%2F%3E%3CmxCell%20id%3D%222%22%20value%3D%22Cliente%22%20style%3D%22swimlane%3BfontStyle%3D1%3Balign%3Dcenter%3BverticalAlign%3Dtop%3BchildLayout%3DstackLayout%3Bhorizontal%3D1%3BstartSize%3D26%3BhorizontalStack%3D0%3BresizeParent%3D1%3BresizeParentMax%3D0%3BresizeLast%3D0%3Bcollapsible%3D1%3BmarginBottom%3D0%3BwhiteSpace%3Dwrap%3Bhtml%3D1%3B%22%20vertex%3D%221%22%20parent%3D%221%22%3E%3CmxGeometry%20x%3D%22320%22%20y%3D%22230%22%20width%3D%22160%22%20height%3D%2286%22%20as%3D%22geometry%22%2F%3E%3C%2FmxCell%3E%3CmxCell%20id%3D%223%22%20value%3D%22%2B%20field%3A%20type%22%20style%3D%22text%3BstrokeColor%3Dnone%3BfillColor%3Dnone%3Balign%3Dleft%3BverticalAlign%3Dtop%3BspacingLeft%3D4%3BspacingRight%3D4%3Boverflow%3Dhidden%3Brotatable%3D0%3Bpoints%3D%5B%5B0%2C0.5%5D%2C%5B1%2C0.5%5D%5D%3BportConstraint%3Deastwest%3BwhiteSpace%3Dwrap%3Bhtml%3D1%3B%22%20vertex%3D%221%22%20parent%3D%222%22%3E%3CmxGeometry%20y%3D%2226%22%20width%3D%22160%22%20height%3D%2226%22%20as%3D%22geometry%22%2F%3E%3C%2FmxCell%3E%3CmxCell%20id%3D%224%22%20value%3D%22%22%20style%3D%22line%3BstrokeWidth%3D1%3BfillColor%3Dnone%3Balign%3Dleft%3BverticalAlign%3Dmiddle%3BspacingTop%3D-1%3BspacingLeft%3D3%3BspacingRight%3D3%3Brotatable%3D0%3BlabelPosition%3Dright%3Bpoints%3D%5B%5D%3BportConstraint%3Deastwest%3BstrokeColor%3Dinherit%3B%22%20vertex%3D%221%22%20parent%3D%222%22%3E%3CmxGeometry%20y%3D%2252%22%20width%3D%22160%22%20height%3D%228%22%20as%3D%22geometry%22%2F%3E%3C%2FmxCell%3E%3CmxCell%20id%3D%225%22%20value%3D%22%2B%20method(type)%3A%20type%22%20style%3D%22text%3BstrokeColor%3Dnone%3BfillColor%3Dnone%3Balign%3Dleft%3BverticalAlign%3Dtop%3BspacingLeft%3D4%3BspacingRight%3D4%3Boverflow%3Dhidden%3Brotatable%3D0%3Bpoints%3D%5B%5B0%2C0.5%5D%2C%5B1%2C0.5%5D%5D%3BportConstraint%3Deastwest%3BwhiteSpace%3Dwrap%3Bhtml%3D1%3B%22%20vertex%3D%221%22%20parent%3D%222%22%3E%3CmxGeometry%20y%3D%2260%22%20width%3D%22160%22%20height%3D%2226%22%20as%3D%22geometry%22%2F%3E%3C%2FmxCell%3E%3C%2Froot%3E%3C%2FmxGraphModel%3E&lt;/span&gt;&lt;br&gt;&lt;/div&gt;&lt;/div&gt;&lt;/div&gt;" style="text;strokeColor=none;fillColor=none;align=left;verticalAlign=top;spacingLeft=4;spacingRight=4;overflow=hidden;rotatable=0;points=[[0,0.5],[1,0.5]];portConstraint=eastwest;whiteSpace=wrap;html=1;" parent="FRSX6BakKpZdlfgSIoeK-12" vertex="1">
          <mxGeometry y="88" width="270" height="42" as="geometry" />
        </mxCell>
        <mxCell id="FRSX6BakKpZdlfgSIoeK-16" value="Reporte" style="swimlane;fontStyle=1;align=center;verticalAlign=top;childLayout=stackLayout;horizontal=1;startSize=26;horizontalStack=0;resizeParent=1;resizeParentMax=0;resizeLast=0;collapsible=1;marginBottom=0;whiteSpace=wrap;html=1;" parent="WIyWlLk6GJQsqaUBKTNV-1" vertex="1">
          <mxGeometry x="1130" y="-1050" width="170" height="100" as="geometry" />
        </mxCell>
        <mxCell id="FRSX6BakKpZdlfgSIoeK-17" value="+ PATH_SALIDA: String" style="text;strokeColor=none;fillColor=none;align=left;verticalAlign=top;spacingLeft=4;spacingRight=4;overflow=hidden;rotatable=0;points=[[0,0.5],[1,0.5]];portConstraint=eastwest;whiteSpace=wrap;html=1;" parent="FRSX6BakKpZdlfgSIoeK-16" vertex="1">
          <mxGeometry y="26" width="170" height="26" as="geometry" />
        </mxCell>
        <mxCell id="FRSX6BakKpZdlfgSIoeK-18" value="" style="line;strokeWidth=1;fillColor=none;align=left;verticalAlign=middle;spacingTop=-1;spacingLeft=3;spacingRight=3;rotatable=0;labelPosition=right;points=[];portConstraint=eastwest;strokeColor=inherit;" parent="FRSX6BakKpZdlfgSIoeK-16" vertex="1">
          <mxGeometry y="52" width="170" height="8" as="geometry" />
        </mxCell>
        <mxCell id="FRSX6BakKpZdlfgSIoeK-19" value="+ generarReporte(): String[][]&lt;div&gt;+ generarHTML(): void&lt;br&gt;&lt;/div&gt;" style="text;strokeColor=none;fillColor=none;align=left;verticalAlign=top;spacingLeft=4;spacingRight=4;overflow=hidden;rotatable=0;points=[[0,0.5],[1,0.5]];portConstraint=eastwest;whiteSpace=wrap;html=1;" parent="FRSX6BakKpZdlfgSIoeK-16" vertex="1">
          <mxGeometry y="60" width="170" height="40" as="geometry" />
        </mxCell>
        <mxCell id="Gp5mDcWNHUmIccvILRRk-0" value="Conexion" style="swimlane;fontStyle=1;align=center;verticalAlign=top;childLayout=stackLayout;horizontal=1;startSize=26;horizontalStack=0;resizeParent=1;resizeParentMax=0;resizeLast=0;collapsible=1;marginBottom=0;whiteSpace=wrap;html=1;" vertex="1" parent="WIyWlLk6GJQsqaUBKTNV-1">
          <mxGeometry x="-610" y="-1080" width="350" height="280" as="geometry" />
        </mxCell>
        <mxCell id="Gp5mDcWNHUmIccvILRRk-1" value="- URL_MYSQL: String&lt;div&gt;- USER: String&lt;br&gt;&lt;/div&gt;&lt;div&gt;- PASSWORD: String&lt;br&gt;&lt;/div&gt;&lt;div&gt;- connection: Connection&lt;br&gt;&lt;/div&gt;" style="text;strokeColor=none;fillColor=none;align=left;verticalAlign=top;spacingLeft=4;spacingRight=4;overflow=hidden;rotatable=0;points=[[0,0.5],[1,0.5]];portConstraint=eastwest;whiteSpace=wrap;html=1;" vertex="1" parent="Gp5mDcWNHUmIccvILRRk-0">
          <mxGeometry y="26" width="350" height="74" as="geometry" />
        </mxCell>
        <mxCell id="Gp5mDcWNHUmIccvILRRk-2" value="" style="line;strokeWidth=1;fillColor=none;align=left;verticalAlign=middle;spacingTop=-1;spacingLeft=3;spacingRight=3;rotatable=0;labelPosition=right;points=[];portConstraint=eastwest;strokeColor=inherit;" vertex="1" parent="Gp5mDcWNHUmIccvILRRk-0">
          <mxGeometry y="100" width="350" height="8" as="geometry" />
        </mxCell>
        <mxCell id="Gp5mDcWNHUmIccvILRRk-3" value="+ insert(): void&lt;div&gt;+ listadoSolicitudes(): String[][]&lt;/div&gt;&lt;div&gt;+ listadoTarjetas(): String[][]&lt;/div&gt;&lt;div&gt;+ estadoDeCuenta(): String[][]&lt;/div&gt;&lt;div&gt;+ obtenerAtributo(): String&lt;/div&gt;&lt;div&gt;+ actualizarAtributo(): void&lt;/div&gt;&lt;div&gt;+ verificarClavePrimaria(): boolean&lt;/div&gt;&lt;div&gt;+ obtenerUltimoId(): int&lt;/div&gt;&lt;div&gt;+ obtenerSalarioCliente(): String&lt;/div&gt;&lt;div&gt;+ obtenerTipoTarjeta(): String&lt;/div&gt;&lt;div&gt;+ cerrarConexion(): void&lt;br&gt;&lt;div&gt;&lt;br&gt;&lt;/div&gt;&lt;/div&gt;" style="text;strokeColor=none;fillColor=none;align=left;verticalAlign=top;spacingLeft=4;spacingRight=4;overflow=hidden;rotatable=0;points=[[0,0.5],[1,0.5]];portConstraint=eastwest;whiteSpace=wrap;html=1;" vertex="1" parent="Gp5mDcWNHUmIccvILRRk-0">
          <mxGeometry y="108" width="350" height="172" as="geometry" />
        </mxCell>
        <mxCell id="Gp5mDcWNHUmIccvILRRk-4" value="Solicitud" style="swimlane;fontStyle=1;align=center;verticalAlign=top;childLayout=stackLayout;horizontal=1;startSize=26;horizontalStack=0;resizeParent=1;resizeParentMax=0;resizeLast=0;collapsible=1;marginBottom=0;whiteSpace=wrap;html=1;" vertex="1" parent="WIyWlLk6GJQsqaUBKTNV-1">
          <mxGeometry x="-620" y="-500" width="170" height="70" as="geometry" />
        </mxCell>
        <mxCell id="Gp5mDcWNHUmIccvILRRk-6" value="" style="line;strokeWidth=1;fillColor=none;align=left;verticalAlign=middle;spacingTop=-1;spacingLeft=3;spacingRight=3;rotatable=0;labelPosition=right;points=[];portConstraint=eastwest;strokeColor=inherit;" vertex="1" parent="Gp5mDcWNHUmIccvILRRk-4">
          <mxGeometry y="26" width="170" height="8" as="geometry" />
        </mxCell>
        <mxCell id="Gp5mDcWNHUmIccvILRRk-7" value="+ realizarSolicitud(): void&lt;div&gt;- solicitudRepetida(): boolean&lt;br&gt;&lt;/div&gt;" style="text;strokeColor=none;fillColor=none;align=left;verticalAlign=top;spacingLeft=4;spacingRight=4;overflow=hidden;rotatable=0;points=[[0,0.5],[1,0.5]];portConstraint=eastwest;whiteSpace=wrap;html=1;" vertex="1" parent="Gp5mDcWNHUmIccvILRRk-4">
          <mxGeometry y="34" width="170" height="36" as="geometry" />
        </mxCell>
        <mxCell id="Gp5mDcWNHUmIccvILRRk-8" value="TipoMovimiento" style="swimlane;fontStyle=1;align=center;verticalAlign=top;childLayout=stackLayout;horizontal=1;startSize=26;horizontalStack=0;resizeParent=1;resizeParentMax=0;resizeLast=0;collapsible=1;marginBottom=0;whiteSpace=wrap;html=1;" vertex="1" parent="WIyWlLk6GJQsqaUBKTNV-1">
          <mxGeometry x="-610" y="-654" width="180" height="104" as="geometry" />
        </mxCell>
        <mxCell id="Gp5mDcWNHUmIccvILRRk-9" value="+ CARGO: enum&lt;div&gt;+ ABONO: enum&lt;br&gt;&lt;/div&gt;" style="text;strokeColor=none;fillColor=none;align=left;verticalAlign=top;spacingLeft=4;spacingRight=4;overflow=hidden;rotatable=0;points=[[0,0.5],[1,0.5]];portConstraint=eastwest;whiteSpace=wrap;html=1;" vertex="1" parent="Gp5mDcWNHUmIccvILRRk-8">
          <mxGeometry y="26" width="180" height="44" as="geometry" />
        </mxCell>
        <mxCell id="Gp5mDcWNHUmIccvILRRk-10" value="" style="line;strokeWidth=1;fillColor=none;align=left;verticalAlign=middle;spacingTop=-1;spacingLeft=3;spacingRight=3;rotatable=0;labelPosition=right;points=[];portConstraint=eastwest;strokeColor=inherit;" vertex="1" parent="Gp5mDcWNHUmIccvILRRk-8">
          <mxGeometry y="70" width="180" height="8" as="geometry" />
        </mxCell>
        <mxCell id="Gp5mDcWNHUmIccvILRRk-11" value="+ modificarSaldo(type): double" style="text;strokeColor=none;fillColor=none;align=left;verticalAlign=top;spacingLeft=4;spacingRight=4;overflow=hidden;rotatable=0;points=[[0,0.5],[1,0.5]];portConstraint=eastwest;whiteSpace=wrap;html=1;" vertex="1" parent="Gp5mDcWNHUmIccvILRRk-8">
          <mxGeometry y="78" width="180" height="26" as="geometry" />
        </mxCell>
        <mxCell id="Gp5mDcWNHUmIccvILRRk-12" value="TipoTarjeta" style="swimlane;fontStyle=1;align=center;verticalAlign=top;childLayout=stackLayout;horizontal=1;startSize=26;horizontalStack=0;resizeParent=1;resizeParentMax=0;resizeLast=0;collapsible=1;marginBottom=0;whiteSpace=wrap;html=1;" vertex="1" parent="WIyWlLk6GJQsqaUBKTNV-1">
          <mxGeometry x="-610" y="-760" width="160" height="88" as="geometry" />
        </mxCell>
        <mxCell id="Gp5mDcWNHUmIccvILRRk-13" value="+ NACIONAL: enum&lt;div&gt;+ REGIONAL:&amp;nbsp;&lt;span style=&quot;background-color: initial;&quot;&gt;enum&lt;/span&gt;&lt;br&gt;&lt;/div&gt;&lt;div&gt;+ INTERNACIONAL:&amp;nbsp;&lt;span style=&quot;background-color: initial;&quot;&gt;enum&lt;/span&gt;&lt;br&gt;&lt;/div&gt;" style="text;strokeColor=none;fillColor=none;align=left;verticalAlign=top;spacingLeft=4;spacingRight=4;overflow=hidden;rotatable=0;points=[[0,0.5],[1,0.5]];portConstraint=eastwest;whiteSpace=wrap;html=1;" vertex="1" parent="Gp5mDcWNHUmIccvILRRk-12">
          <mxGeometry y="26" width="160" height="54" as="geometry" />
        </mxCell>
        <mxCell id="Gp5mDcWNHUmIccvILRRk-14" value="" style="line;strokeWidth=1;fillColor=none;align=left;verticalAlign=middle;spacingTop=-1;spacingLeft=3;spacingRight=3;rotatable=0;labelPosition=right;points=[];portConstraint=eastwest;strokeColor=inherit;" vertex="1" parent="Gp5mDcWNHUmIccvILRRk-12">
          <mxGeometry y="80" width="160" height="8" as="geometry" />
        </mxCell>
        <mxCell id="Gp5mDcWNHUmIccvILRRk-70" style="edgeStyle=orthogonalEdgeStyle;rounded=0;orthogonalLoop=1;jettySize=auto;html=1;exitX=0.5;exitY=0;exitDx=0;exitDy=0;" edge="1" parent="WIyWlLk6GJQsqaUBKTNV-1" source="Gp5mDcWNHUmIccvILRRk-16" target="FRSX6BakKpZdlfgSIoeK-8">
          <mxGeometry relative="1" as="geometry" />
        </mxCell>
        <mxCell id="Gp5mDcWNHUmIccvILRRk-72" style="edgeStyle=orthogonalEdgeStyle;rounded=0;orthogonalLoop=1;jettySize=auto;html=1;exitX=0.75;exitY=0;exitDx=0;exitDy=0;" edge="1" parent="WIyWlLk6GJQsqaUBKTNV-1" source="Gp5mDcWNHUmIccvILRRk-16" target="FRSX6BakKpZdlfgSIoeK-12">
          <mxGeometry relative="1" as="geometry" />
        </mxCell>
        <mxCell id="Gp5mDcWNHUmIccvILRRk-16" value="FramePrincipal" style="swimlane;fontStyle=1;align=center;verticalAlign=top;childLayout=stackLayout;horizontal=1;startSize=26;horizontalStack=0;resizeParent=1;resizeParentMax=0;resizeLast=0;collapsible=1;marginBottom=0;whiteSpace=wrap;html=1;" vertex="1" parent="WIyWlLk6GJQsqaUBKTNV-1">
          <mxGeometry x="-360" y="-400" width="220" height="340" as="geometry" />
        </mxCell>
        <mxCell id="Gp5mDcWNHUmIccvILRRk-17" value="- autorizacionBtn: JMenu&lt;div&gt;- cancelacionBtn: JMenu&lt;br&gt;&lt;/div&gt;&lt;div&gt;- cargarBtn:&amp;nbsp;JMenu&lt;br&gt;&lt;/div&gt;&lt;div&gt;- consultaBtn: JMenu&lt;br&gt;&lt;/div&gt;&lt;div&gt;- estadoBtn: JMenu&lt;br&gt;&lt;/div&gt;&lt;div&gt;- jDesktopPane1: JDesktopPane&lt;br&gt;&lt;/div&gt;&lt;div&gt;- jMenuBar1: JMenuBar&lt;br&gt;&lt;/div&gt;&lt;div&gt;- listadoSBtn: JMenu&lt;br&gt;&lt;/div&gt;&lt;div&gt;- listadoTBtn: JMenu&lt;br&gt;&lt;/div&gt;&lt;div&gt;- movimientoBtn: JMenu&lt;br&gt;&lt;/div&gt;&lt;div&gt;- solicitudBtn: JMenu&lt;br&gt;&lt;/div&gt;" style="text;strokeColor=none;fillColor=none;align=left;verticalAlign=top;spacingLeft=4;spacingRight=4;overflow=hidden;rotatable=0;points=[[0,0.5],[1,0.5]];portConstraint=eastwest;whiteSpace=wrap;html=1;" vertex="1" parent="Gp5mDcWNHUmIccvILRRk-16">
          <mxGeometry y="26" width="220" height="164" as="geometry" />
        </mxCell>
        <mxCell id="Gp5mDcWNHUmIccvILRRk-18" value="" style="line;strokeWidth=1;fillColor=none;align=left;verticalAlign=middle;spacingTop=-1;spacingLeft=3;spacingRight=3;rotatable=0;labelPosition=right;points=[];portConstraint=eastwest;strokeColor=inherit;" vertex="1" parent="Gp5mDcWNHUmIccvILRRk-16">
          <mxGeometry y="190" width="220" height="8" as="geometry" />
        </mxCell>
        <mxCell id="Gp5mDcWNHUmIccvILRRk-19" value="- cargarBtnMouseClicked(): void&lt;div&gt;- cargarBtnMouseClicked(): void&lt;br&gt;&lt;/div&gt;&lt;div&gt;- cargarBtnMouseClicked(): void&lt;br&gt;&lt;/div&gt;&lt;div&gt;- consultaBtnMouseClicked(): void&lt;br&gt;&lt;/div&gt;&lt;div&gt;- autorizacionBtnMouseClicked(): void&lt;br&gt;&lt;/div&gt;&lt;div&gt;- cancelacionBtnMouseClicked(): void&lt;br&gt;&lt;/div&gt;&lt;div&gt;- estadoBtnMouseClicked(): void&lt;br&gt;&lt;/div&gt;&lt;div&gt;- listadoTBtnMouseClicked(): void&lt;br&gt;&lt;/div&gt;&lt;div&gt;- listadoSBtnMouseClicked(): void&lt;br&gt;&lt;/div&gt;" style="text;strokeColor=none;fillColor=none;align=left;verticalAlign=top;spacingLeft=4;spacingRight=4;overflow=hidden;rotatable=0;points=[[0,0.5],[1,0.5]];portConstraint=eastwest;whiteSpace=wrap;html=1;" vertex="1" parent="Gp5mDcWNHUmIccvILRRk-16">
          <mxGeometry y="198" width="220" height="142" as="geometry" />
        </mxCell>
        <mxCell id="Gp5mDcWNHUmIccvILRRk-20" value="FrameCancelacion" style="swimlane;fontStyle=1;align=center;verticalAlign=top;childLayout=stackLayout;horizontal=1;startSize=26;horizontalStack=0;resizeParent=1;resizeParentMax=0;resizeLast=0;collapsible=1;marginBottom=0;whiteSpace=wrap;html=1;" vertex="1" parent="WIyWlLk6GJQsqaUBKTNV-1">
          <mxGeometry x="1241" y="-500" width="190" height="114" as="geometry" />
        </mxCell>
        <mxCell id="Gp5mDcWNHUmIccvILRRk-21" value="- jButton1: JButton&lt;div&gt;- jLabel1: JLabel&lt;br&gt;&lt;/div&gt;&lt;div&gt;- numTarjetaField: JTextField&lt;br&gt;&lt;/div&gt;" style="text;strokeColor=none;fillColor=none;align=left;verticalAlign=top;spacingLeft=4;spacingRight=4;overflow=hidden;rotatable=0;points=[[0,0.5],[1,0.5]];portConstraint=eastwest;whiteSpace=wrap;html=1;" vertex="1" parent="Gp5mDcWNHUmIccvILRRk-20">
          <mxGeometry y="26" width="190" height="54" as="geometry" />
        </mxCell>
        <mxCell id="Gp5mDcWNHUmIccvILRRk-22" value="" style="line;strokeWidth=1;fillColor=none;align=left;verticalAlign=middle;spacingTop=-1;spacingLeft=3;spacingRight=3;rotatable=0;labelPosition=right;points=[];portConstraint=eastwest;strokeColor=inherit;" vertex="1" parent="Gp5mDcWNHUmIccvILRRk-20">
          <mxGeometry y="80" width="190" height="8" as="geometry" />
        </mxCell>
        <mxCell id="Gp5mDcWNHUmIccvILRRk-23" value="- jButton1ActionPerformed(): void" style="text;strokeColor=none;fillColor=none;align=left;verticalAlign=top;spacingLeft=4;spacingRight=4;overflow=hidden;rotatable=0;points=[[0,0.5],[1,0.5]];portConstraint=eastwest;whiteSpace=wrap;html=1;" vertex="1" parent="Gp5mDcWNHUmIccvILRRk-20">
          <mxGeometry y="88" width="190" height="26" as="geometry" />
        </mxCell>
        <mxCell id="Gp5mDcWNHUmIccvILRRk-24" value="FrameAutorizacion" style="swimlane;fontStyle=1;align=center;verticalAlign=top;childLayout=stackLayout;horizontal=1;startSize=26;horizontalStack=0;resizeParent=1;resizeParentMax=0;resizeLast=0;collapsible=1;marginBottom=0;whiteSpace=wrap;html=1;" vertex="1" parent="WIyWlLk6GJQsqaUBKTNV-1">
          <mxGeometry x="-70" y="-520" width="240" height="120" as="geometry" />
        </mxCell>
        <mxCell id="Gp5mDcWNHUmIccvILRRk-25" value="- autorizarBtn: JButton&lt;div&gt;- jLabel1: JLabel&lt;br&gt;&lt;/div&gt;&lt;div&gt;- numSolicitudField: JTextField&lt;br&gt;&lt;/div&gt;" style="text;strokeColor=none;fillColor=none;align=left;verticalAlign=top;spacingLeft=4;spacingRight=4;overflow=hidden;rotatable=0;points=[[0,0.5],[1,0.5]];portConstraint=eastwest;whiteSpace=wrap;html=1;" vertex="1" parent="Gp5mDcWNHUmIccvILRRk-24">
          <mxGeometry y="26" width="240" height="54" as="geometry" />
        </mxCell>
        <mxCell id="Gp5mDcWNHUmIccvILRRk-26" value="" style="line;strokeWidth=1;fillColor=none;align=left;verticalAlign=middle;spacingTop=-1;spacingLeft=3;spacingRight=3;rotatable=0;labelPosition=right;points=[];portConstraint=eastwest;strokeColor=inherit;" vertex="1" parent="Gp5mDcWNHUmIccvILRRk-24">
          <mxGeometry y="80" width="240" height="8" as="geometry" />
        </mxCell>
        <mxCell id="Gp5mDcWNHUmIccvILRRk-27" value="- autorizarBtnActionPerformed(): void" style="text;strokeColor=none;fillColor=none;align=left;verticalAlign=top;spacingLeft=4;spacingRight=4;overflow=hidden;rotatable=0;points=[[0,0.5],[1,0.5]];portConstraint=eastwest;whiteSpace=wrap;html=1;" vertex="1" parent="Gp5mDcWNHUmIccvILRRk-24">
          <mxGeometry y="88" width="240" height="32" as="geometry" />
        </mxCell>
        <mxCell id="Gp5mDcWNHUmIccvILRRk-28" value="FrameCargarArchivo" style="swimlane;fontStyle=1;align=center;verticalAlign=top;childLayout=stackLayout;horizontal=1;startSize=26;horizontalStack=0;resizeParent=1;resizeParentMax=0;resizeLast=0;collapsible=1;marginBottom=0;whiteSpace=wrap;html=1;" vertex="1" parent="WIyWlLk6GJQsqaUBKTNV-1">
          <mxGeometry x="-635" y="-280" width="230" height="190" as="geometry" />
        </mxCell>
        <mxCell id="Gp5mDcWNHUmIccvILRRk-29" value="- confirmarBtn: JButton&lt;div&gt;- destinoBtn: JButton&lt;br&gt;&lt;/div&gt;&lt;div&gt;- jLabel1: JLabel&lt;br&gt;&lt;/div&gt;&lt;div&gt;- jLabel2: JLabel&lt;br&gt;&lt;/div&gt;&lt;div&gt;- jProgressBar1: JProgressBar&lt;br&gt;&lt;/div&gt;&lt;div&gt;- jTextField1: JTextField&lt;br&gt;&lt;/div&gt;&lt;div&gt;- seleccionarBtn: JButton&lt;br&gt;&lt;/div&gt;" style="text;strokeColor=none;fillColor=none;align=left;verticalAlign=top;spacingLeft=4;spacingRight=4;overflow=hidden;rotatable=0;points=[[0,0.5],[1,0.5]];portConstraint=eastwest;whiteSpace=wrap;html=1;" vertex="1" parent="Gp5mDcWNHUmIccvILRRk-28">
          <mxGeometry y="26" width="230" height="104" as="geometry" />
        </mxCell>
        <mxCell id="Gp5mDcWNHUmIccvILRRk-30" value="" style="line;strokeWidth=1;fillColor=none;align=left;verticalAlign=middle;spacingTop=-1;spacingLeft=3;spacingRight=3;rotatable=0;labelPosition=right;points=[];portConstraint=eastwest;strokeColor=inherit;" vertex="1" parent="Gp5mDcWNHUmIccvILRRk-28">
          <mxGeometry y="130" width="230" height="8" as="geometry" />
        </mxCell>
        <mxCell id="Gp5mDcWNHUmIccvILRRk-31" value="- seleccionarBtnActionPerformed(): void&lt;div&gt;- destinoBtnActionPerformed(): void&lt;br&gt;&lt;/div&gt;&lt;div&gt;- confirmarBtnActionPerformed(): void&lt;br&gt;&lt;/div&gt;" style="text;strokeColor=none;fillColor=none;align=left;verticalAlign=top;spacingLeft=4;spacingRight=4;overflow=hidden;rotatable=0;points=[[0,0.5],[1,0.5]];portConstraint=eastwest;whiteSpace=wrap;html=1;" vertex="1" parent="Gp5mDcWNHUmIccvILRRk-28">
          <mxGeometry y="138" width="230" height="52" as="geometry" />
        </mxCell>
        <mxCell id="Gp5mDcWNHUmIccvILRRk-32" value="FrameConsulta" style="swimlane;fontStyle=1;align=center;verticalAlign=top;childLayout=stackLayout;horizontal=1;startSize=26;horizontalStack=0;resizeParent=1;resizeParentMax=0;resizeLast=0;collapsible=1;marginBottom=0;whiteSpace=wrap;html=1;" vertex="1" parent="WIyWlLk6GJQsqaUBKTNV-1">
          <mxGeometry x="270" y="-614" width="190" height="114" as="geometry" />
        </mxCell>
        <mxCell id="Gp5mDcWNHUmIccvILRRk-33" value="- jButton1: JButton&lt;div&gt;- jLabel1: JLabel&lt;br&gt;&lt;/div&gt;&lt;div&gt;- numTarjetaField: JTextField&lt;br&gt;&lt;/div&gt;" style="text;strokeColor=none;fillColor=none;align=left;verticalAlign=top;spacingLeft=4;spacingRight=4;overflow=hidden;rotatable=0;points=[[0,0.5],[1,0.5]];portConstraint=eastwest;whiteSpace=wrap;html=1;" vertex="1" parent="Gp5mDcWNHUmIccvILRRk-32">
          <mxGeometry y="26" width="190" height="54" as="geometry" />
        </mxCell>
        <mxCell id="Gp5mDcWNHUmIccvILRRk-34" value="" style="line;strokeWidth=1;fillColor=none;align=left;verticalAlign=middle;spacingTop=-1;spacingLeft=3;spacingRight=3;rotatable=0;labelPosition=right;points=[];portConstraint=eastwest;strokeColor=inherit;" vertex="1" parent="Gp5mDcWNHUmIccvILRRk-32">
          <mxGeometry y="80" width="190" height="8" as="geometry" />
        </mxCell>
        <mxCell id="Gp5mDcWNHUmIccvILRRk-35" value="- jButton1ActionPerformed(): void" style="text;strokeColor=none;fillColor=none;align=left;verticalAlign=top;spacingLeft=4;spacingRight=4;overflow=hidden;rotatable=0;points=[[0,0.5],[1,0.5]];portConstraint=eastwest;whiteSpace=wrap;html=1;" vertex="1" parent="Gp5mDcWNHUmIccvILRRk-32">
          <mxGeometry y="88" width="190" height="26" as="geometry" />
        </mxCell>
        <mxCell id="Gp5mDcWNHUmIccvILRRk-36" value="FrameMovimiento" style="swimlane;fontStyle=1;align=center;verticalAlign=top;childLayout=stackLayout;horizontal=1;startSize=26;horizontalStack=0;resizeParent=1;resizeParentMax=0;resizeLast=0;collapsible=1;marginBottom=0;whiteSpace=wrap;html=1;" vertex="1" parent="WIyWlLk6GJQsqaUBKTNV-1">
          <mxGeometry x="90" y="-370" width="220" height="214" as="geometry" />
        </mxCell>
        <mxCell id="Gp5mDcWNHUmIccvILRRk-37" value="- comboBox: JComboBox&amp;lt;String&amp;gt;&lt;div&gt;- confirmarBtn: JButton&lt;br&gt;&lt;/div&gt;&lt;div&gt;- descripcionField: JTextArea&lt;br&gt;&lt;/div&gt;&lt;div&gt;- establecimientoField: JTextField&lt;br&gt;&lt;/div&gt;&lt;div&gt;- fechaField: JTextField&lt;br&gt;&lt;/div&gt;&lt;div&gt;- jButton1:&amp;nbsp;&lt;span style=&quot;background-color: initial;&quot;&gt;JButton&lt;/span&gt;&lt;br&gt;&lt;/div&gt;&lt;div&gt;- jLabel: JLabel&lt;br&gt;&lt;/div&gt;&lt;div&gt;- jScrollPane1: JScrollPane&lt;br&gt;&lt;/div&gt;&lt;div&gt;- montoField: JTextField&lt;br&gt;&lt;/div&gt;&lt;div&gt;- numTarjetaField: JTextField&lt;/div&gt;" style="text;strokeColor=none;fillColor=none;align=left;verticalAlign=top;spacingLeft=4;spacingRight=4;overflow=hidden;rotatable=0;points=[[0,0.5],[1,0.5]];portConstraint=eastwest;whiteSpace=wrap;html=1;" vertex="1" parent="Gp5mDcWNHUmIccvILRRk-36">
          <mxGeometry y="26" width="220" height="154" as="geometry" />
        </mxCell>
        <mxCell id="Gp5mDcWNHUmIccvILRRk-38" value="" style="line;strokeWidth=1;fillColor=none;align=left;verticalAlign=middle;spacingTop=-1;spacingLeft=3;spacingRight=3;rotatable=0;labelPosition=right;points=[];portConstraint=eastwest;strokeColor=inherit;" vertex="1" parent="Gp5mDcWNHUmIccvILRRk-36">
          <mxGeometry y="180" width="220" height="8" as="geometry" />
        </mxCell>
        <mxCell id="Gp5mDcWNHUmIccvILRRk-39" value="- confirmarBtnActionPerformed(): void" style="text;strokeColor=none;fillColor=none;align=left;verticalAlign=top;spacingLeft=4;spacingRight=4;overflow=hidden;rotatable=0;points=[[0,0.5],[1,0.5]];portConstraint=eastwest;whiteSpace=wrap;html=1;" vertex="1" parent="Gp5mDcWNHUmIccvILRRk-36">
          <mxGeometry y="188" width="220" height="26" as="geometry" />
        </mxCell>
        <mxCell id="Gp5mDcWNHUmIccvILRRk-40" value="FrameSolicitud&lt;span style=&quot;color: rgba(0, 0, 0, 0); font-family: monospace; font-size: 0px; font-weight: 400; text-align: start; text-wrap: nowrap;&quot;&gt;%3CmxGraphModel%3E%3Croot%3E%3CmxCell%20id%3D%220%22%2F%3E%3CmxCell%20id%3D%221%22%20parent%3D%220%22%2F%3E%3CmxCell%20id%3D%222%22%20value%3D%22FrameMovimiento%22%20style%3D%22swimlane%3BfontStyle%3D1%3Balign%3Dcenter%3BverticalAlign%3Dtop%3BchildLayout%3DstackLayout%3Bhorizontal%3D1%3BstartSize%3D26%3BhorizontalStack%3D0%3BresizeParent%3D1%3BresizeParentMax%3D0%3BresizeLast%3D0%3Bcollapsible%3D1%3BmarginBottom%3D0%3BwhiteSpace%3Dwrap%3Bhtml%3D1%3B%22%20vertex%3D%221%22%20parent%3D%221%22%3E%3CmxGeometry%20x%3D%22180%22%20y%3D%22-440%22%20width%3D%22160%22%20height%3D%2286%22%20as%3D%22geometry%22%2F%3E%3C%2FmxCell%3E%3CmxCell%20id%3D%223%22%20value%3D%22%2B%20texto%3A%20String%22%20style%3D%22text%3BstrokeColor%3Dnone%3BfillColor%3Dnone%3Balign%3Dleft%3BverticalAlign%3Dtop%3BspacingLeft%3D4%3BspacingRight%3D4%3Boverflow%3Dhidden%3Brotatable%3D0%3Bpoints%3D%5B%5B0%2C0.5%5D%2C%5B1%2C0.5%5D%5D%3BportConstraint%3Deastwest%3BwhiteSpace%3Dwrap%3Bhtml%3D1%3B%22%20vertex%3D%221%22%20parent%3D%222%22%3E%3CmxGeometry%20y%3D%2226%22%20width%3D%22160%22%20height%3D%2226%22%20as%3D%22geometry%22%2F%3E%3C%2FmxCell%3E%3CmxCell%20id%3D%224%22%20value%3D%22%22%20style%3D%22line%3BstrokeWidth%3D1%3BfillColor%3Dnone%3Balign%3Dleft%3BverticalAlign%3Dmiddle%3BspacingTop%3D-1%3BspacingLeft%3D3%3BspacingRight%3D3%3Brotatable%3D0%3BlabelPosition%3Dright%3Bpoints%3D%5B%5D%3BportConstraint%3Deastwest%3BstrokeColor%3Dinherit%3B%22%20vertex%3D%221%22%20parent%3D%222%22%3E%3CmxGeometry%20y%3D%2252%22%20width%3D%22160%22%20height%3D%228%22%20as%3D%22geometry%22%2F%3E%3C%2FmxCell%3E%3CmxCell%20id%3D%225%22%20value%3D%22%2B%20method(type)%3A%20type%22%20style%3D%22text%3BstrokeColor%3Dnone%3BfillColor%3Dnone%3Balign%3Dleft%3BverticalAlign%3Dtop%3BspacingLeft%3D4%3BspacingRight%3D4%3Boverflow%3Dhidden%3Brotatable%3D0%3Bpoints%3D%5B%5B0%2C0.5%5D%2C%5B1%2C0.5%5D%5D%3BportConstraint%3Deastwest%3BwhiteSpace%3Dwrap%3Bhtml%3D1%3B%22%20vertex%3D%221%22%20parent%3D%222%22%3E%3CmxGeometry%20y%3D%2260%22%20width%3D%22160%22%20height%3D%2226%22%20as%3D%22geometry%22%2F%3E%3C%2FmxCell%3E%3C%2Froot%3E%3C%2FmxGraphModel%3E&lt;/span&gt;" style="swimlane;fontStyle=1;align=center;verticalAlign=top;childLayout=stackLayout;horizontal=1;startSize=26;horizontalStack=0;resizeParent=1;resizeParentMax=0;resizeLast=0;collapsible=1;marginBottom=0;whiteSpace=wrap;html=1;" vertex="1" parent="WIyWlLk6GJQsqaUBKTNV-1">
          <mxGeometry x="880" y="-420" width="220" height="184" as="geometry" />
        </mxCell>
        <mxCell id="Gp5mDcWNHUmIccvILRRk-41" value="- confirmarBtn: JButton&lt;div&gt;- direccionField: JTextField&lt;br&gt;&lt;/div&gt;&lt;div&gt;- fechaField: JTextField&lt;br&gt;&lt;/div&gt;&lt;div&gt;- jLabel: JLabel&lt;br&gt;&lt;/div&gt;&lt;div&gt;- nombreField: JTextField&lt;br&gt;&lt;/div&gt;&lt;div&gt;- numField: JTextField&lt;br&gt;&lt;/div&gt;&lt;div&gt;- salarioField: JTextField&lt;br&gt;&lt;/div&gt;&lt;div&gt;- tipoField: JTextField&lt;br&gt;&lt;/div&gt;" style="text;strokeColor=none;fillColor=none;align=left;verticalAlign=top;spacingLeft=4;spacingRight=4;overflow=hidden;rotatable=0;points=[[0,0.5],[1,0.5]];portConstraint=eastwest;whiteSpace=wrap;html=1;" vertex="1" parent="Gp5mDcWNHUmIccvILRRk-40">
          <mxGeometry y="26" width="220" height="124" as="geometry" />
        </mxCell>
        <mxCell id="Gp5mDcWNHUmIccvILRRk-42" value="" style="line;strokeWidth=1;fillColor=none;align=left;verticalAlign=middle;spacingTop=-1;spacingLeft=3;spacingRight=3;rotatable=0;labelPosition=right;points=[];portConstraint=eastwest;strokeColor=inherit;" vertex="1" parent="Gp5mDcWNHUmIccvILRRk-40">
          <mxGeometry y="150" width="220" height="8" as="geometry" />
        </mxCell>
        <mxCell id="Gp5mDcWNHUmIccvILRRk-43" value="- confirmarBtnActionPerformed(): void" style="text;strokeColor=none;fillColor=none;align=left;verticalAlign=top;spacingLeft=4;spacingRight=4;overflow=hidden;rotatable=0;points=[[0,0.5],[1,0.5]];portConstraint=eastwest;whiteSpace=wrap;html=1;" vertex="1" parent="Gp5mDcWNHUmIccvILRRk-40">
          <mxGeometry y="158" width="220" height="26" as="geometry" />
        </mxCell>
        <mxCell id="Gp5mDcWNHUmIccvILRRk-44" value="FrameEstadoCuenta" style="swimlane;fontStyle=1;align=center;verticalAlign=top;childLayout=stackLayout;horizontal=1;startSize=26;horizontalStack=0;resizeParent=1;resizeParentMax=0;resizeLast=0;collapsible=1;marginBottom=0;whiteSpace=wrap;html=1;" vertex="1" parent="WIyWlLk6GJQsqaUBKTNV-1">
          <mxGeometry x="275" y="-470" width="200" height="90" as="geometry" />
        </mxCell>
        <mxCell id="Gp5mDcWNHUmIccvILRRk-45" value="+ jButton1: JButton" style="text;strokeColor=none;fillColor=none;align=left;verticalAlign=top;spacingLeft=4;spacingRight=4;overflow=hidden;rotatable=0;points=[[0,0.5],[1,0.5]];portConstraint=eastwest;whiteSpace=wrap;html=1;" vertex="1" parent="Gp5mDcWNHUmIccvILRRk-44">
          <mxGeometry y="26" width="200" height="26" as="geometry" />
        </mxCell>
        <mxCell id="Gp5mDcWNHUmIccvILRRk-46" value="" style="line;strokeWidth=1;fillColor=none;align=left;verticalAlign=middle;spacingTop=-1;spacingLeft=3;spacingRight=3;rotatable=0;labelPosition=right;points=[];portConstraint=eastwest;strokeColor=inherit;" vertex="1" parent="Gp5mDcWNHUmIccvILRRk-44">
          <mxGeometry y="52" width="200" height="8" as="geometry" />
        </mxCell>
        <mxCell id="Gp5mDcWNHUmIccvILRRk-47" value="+ jButton1ActionPerformed(): void" style="text;strokeColor=none;fillColor=none;align=left;verticalAlign=top;spacingLeft=4;spacingRight=4;overflow=hidden;rotatable=0;points=[[0,0.5],[1,0.5]];portConstraint=eastwest;whiteSpace=wrap;html=1;" vertex="1" parent="Gp5mDcWNHUmIccvILRRk-44">
          <mxGeometry y="60" width="200" height="30" as="geometry" />
        </mxCell>
        <mxCell id="Gp5mDcWNHUmIccvILRRk-48" value="FrameTabla" style="swimlane;fontStyle=1;align=center;verticalAlign=top;childLayout=stackLayout;horizontal=1;startSize=26;horizontalStack=0;resizeParent=1;resizeParentMax=0;resizeLast=0;collapsible=1;marginBottom=0;whiteSpace=wrap;html=1;" vertex="1" parent="WIyWlLk6GJQsqaUBKTNV-1">
          <mxGeometry x="-620" y="-382" width="160" height="60" as="geometry" />
        </mxCell>
        <mxCell id="Gp5mDcWNHUmIccvILRRk-49" value="+ JTable: String" style="text;strokeColor=none;fillColor=none;align=left;verticalAlign=top;spacingLeft=4;spacingRight=4;overflow=hidden;rotatable=0;points=[[0,0.5],[1,0.5]];portConstraint=eastwest;whiteSpace=wrap;html=1;" vertex="1" parent="Gp5mDcWNHUmIccvILRRk-48">
          <mxGeometry y="26" width="160" height="26" as="geometry" />
        </mxCell>
        <mxCell id="Gp5mDcWNHUmIccvILRRk-50" value="" style="line;strokeWidth=1;fillColor=none;align=left;verticalAlign=middle;spacingTop=-1;spacingLeft=3;spacingRight=3;rotatable=0;labelPosition=right;points=[];portConstraint=eastwest;strokeColor=inherit;" vertex="1" parent="Gp5mDcWNHUmIccvILRRk-48">
          <mxGeometry y="52" width="160" height="8" as="geometry" />
        </mxCell>
        <mxCell id="Gp5mDcWNHUmIccvILRRk-52" value="ListadoTarjetas" style="swimlane;fontStyle=1;align=center;verticalAlign=top;childLayout=stackLayout;horizontal=1;startSize=26;horizontalStack=0;resizeParent=1;resizeParentMax=0;resizeLast=0;collapsible=1;marginBottom=0;whiteSpace=wrap;html=1;" vertex="1" parent="WIyWlLk6GJQsqaUBKTNV-1">
          <mxGeometry x="390" y="-110" width="205" height="86" as="geometry" />
        </mxCell>
        <mxCell id="Gp5mDcWNHUmIccvILRRk-53" value="+ jButton1: JButton" style="text;strokeColor=none;fillColor=none;align=left;verticalAlign=top;spacingLeft=4;spacingRight=4;overflow=hidden;rotatable=0;points=[[0,0.5],[1,0.5]];portConstraint=eastwest;whiteSpace=wrap;html=1;" vertex="1" parent="Gp5mDcWNHUmIccvILRRk-52">
          <mxGeometry y="26" width="205" height="26" as="geometry" />
        </mxCell>
        <mxCell id="Gp5mDcWNHUmIccvILRRk-54" value="" style="line;strokeWidth=1;fillColor=none;align=left;verticalAlign=middle;spacingTop=-1;spacingLeft=3;spacingRight=3;rotatable=0;labelPosition=right;points=[];portConstraint=eastwest;strokeColor=inherit;" vertex="1" parent="Gp5mDcWNHUmIccvILRRk-52">
          <mxGeometry y="52" width="205" height="8" as="geometry" />
        </mxCell>
        <mxCell id="Gp5mDcWNHUmIccvILRRk-55" value="+ jButton1ActionPerformed(): void" style="text;strokeColor=none;fillColor=none;align=left;verticalAlign=top;spacingLeft=4;spacingRight=4;overflow=hidden;rotatable=0;points=[[0,0.5],[1,0.5]];portConstraint=eastwest;whiteSpace=wrap;html=1;" vertex="1" parent="Gp5mDcWNHUmIccvILRRk-52">
          <mxGeometry y="60" width="205" height="26" as="geometry" />
        </mxCell>
        <mxCell id="Gp5mDcWNHUmIccvILRRk-56" value="ListadoSolicitudes" style="swimlane;fontStyle=1;align=center;verticalAlign=top;childLayout=stackLayout;horizontal=1;startSize=26;horizontalStack=0;resizeParent=1;resizeParentMax=0;resizeLast=0;collapsible=1;marginBottom=0;whiteSpace=wrap;html=1;" vertex="1" parent="WIyWlLk6GJQsqaUBKTNV-1">
          <mxGeometry x="390" y="-220" width="200" height="86" as="geometry" />
        </mxCell>
        <mxCell id="Gp5mDcWNHUmIccvILRRk-57" value="+ jButton1: JButton" style="text;strokeColor=none;fillColor=none;align=left;verticalAlign=top;spacingLeft=4;spacingRight=4;overflow=hidden;rotatable=0;points=[[0,0.5],[1,0.5]];portConstraint=eastwest;whiteSpace=wrap;html=1;" vertex="1" parent="Gp5mDcWNHUmIccvILRRk-56">
          <mxGeometry y="26" width="200" height="26" as="geometry" />
        </mxCell>
        <mxCell id="Gp5mDcWNHUmIccvILRRk-58" value="" style="line;strokeWidth=1;fillColor=none;align=left;verticalAlign=middle;spacingTop=-1;spacingLeft=3;spacingRight=3;rotatable=0;labelPosition=right;points=[];portConstraint=eastwest;strokeColor=inherit;" vertex="1" parent="Gp5mDcWNHUmIccvILRRk-56">
          <mxGeometry y="52" width="200" height="8" as="geometry" />
        </mxCell>
        <mxCell id="Gp5mDcWNHUmIccvILRRk-59" value="+ jButton1ActionPerformed(): void" style="text;strokeColor=none;fillColor=none;align=left;verticalAlign=top;spacingLeft=4;spacingRight=4;overflow=hidden;rotatable=0;points=[[0,0.5],[1,0.5]];portConstraint=eastwest;whiteSpace=wrap;html=1;" vertex="1" parent="Gp5mDcWNHUmIccvILRRk-56">
          <mxGeometry y="60" width="200" height="26" as="geometry" />
        </mxCell>
        <mxCell id="Gp5mDcWNHUmIccvILRRk-64" style="edgeStyle=orthogonalEdgeStyle;rounded=0;orthogonalLoop=1;jettySize=auto;html=1;exitX=1;exitY=0.5;exitDx=0;exitDy=0;entryX=0;entryY=0.5;entryDx=0;entryDy=0;" edge="1" parent="WIyWlLk6GJQsqaUBKTNV-1" source="FRSX6BakKpZdlfgSIoeK-7" target="FRSX6BakKpZdlfgSIoeK-9">
          <mxGeometry relative="1" as="geometry" />
        </mxCell>
        <mxCell id="Gp5mDcWNHUmIccvILRRk-65" style="edgeStyle=orthogonalEdgeStyle;rounded=0;orthogonalLoop=1;jettySize=auto;html=1;exitX=1;exitY=0.5;exitDx=0;exitDy=0;entryX=-0.011;entryY=0.922;entryDx=0;entryDy=0;entryPerimeter=0;" edge="1" parent="WIyWlLk6GJQsqaUBKTNV-1" source="Gp5mDcWNHUmIccvILRRk-3" target="FRSX6BakKpZdlfgSIoeK-7">
          <mxGeometry relative="1" as="geometry" />
        </mxCell>
        <mxCell id="Gp5mDcWNHUmIccvILRRk-69" style="edgeStyle=orthogonalEdgeStyle;rounded=0;orthogonalLoop=1;jettySize=auto;html=1;exitX=0;exitY=0.5;exitDx=0;exitDy=0;" edge="1" parent="WIyWlLk6GJQsqaUBKTNV-1" source="Gp5mDcWNHUmIccvILRRk-7" target="Gp5mDcWNHUmIccvILRRk-1">
          <mxGeometry relative="1" as="geometry" />
        </mxCell>
        <mxCell id="Gp5mDcWNHUmIccvILRRk-74" style="edgeStyle=orthogonalEdgeStyle;rounded=0;orthogonalLoop=1;jettySize=auto;html=1;exitX=1;exitY=0.5;exitDx=0;exitDy=0;" edge="1" parent="WIyWlLk6GJQsqaUBKTNV-1" source="Gp5mDcWNHUmIccvILRRk-13" target="FRSX6BakKpZdlfgSIoeK-9">
          <mxGeometry relative="1" as="geometry">
            <Array as="points">
              <mxPoint x="-450" y="-740" />
              <mxPoint x="-190" y="-740" />
              <mxPoint x="-190" y="-797" />
            </Array>
          </mxGeometry>
        </mxCell>
        <mxCell id="Gp5mDcWNHUmIccvILRRk-75" style="edgeStyle=orthogonalEdgeStyle;rounded=0;orthogonalLoop=1;jettySize=auto;html=1;exitX=1;exitY=0.5;exitDx=0;exitDy=0;entryX=-0.012;entryY=0.293;entryDx=0;entryDy=0;entryPerimeter=0;" edge="1" parent="WIyWlLk6GJQsqaUBKTNV-1" source="Gp5mDcWNHUmIccvILRRk-49" target="Gp5mDcWNHUmIccvILRRk-17">
          <mxGeometry relative="1" as="geometry" />
        </mxCell>
        <mxCell id="Gp5mDcWNHUmIccvILRRk-76" style="edgeStyle=orthogonalEdgeStyle;rounded=0;orthogonalLoop=1;jettySize=auto;html=1;exitX=1;exitY=0.5;exitDx=0;exitDy=0;" edge="1" parent="WIyWlLk6GJQsqaUBKTNV-1" source="Gp5mDcWNHUmIccvILRRk-29" target="Gp5mDcWNHUmIccvILRRk-19">
          <mxGeometry relative="1" as="geometry" />
        </mxCell>
        <mxCell id="Gp5mDcWNHUmIccvILRRk-77" style="edgeStyle=orthogonalEdgeStyle;rounded=0;orthogonalLoop=1;jettySize=auto;html=1;exitX=0;exitY=0.5;exitDx=0;exitDy=0;entryX=0.968;entryY=-0.03;entryDx=0;entryDy=0;entryPerimeter=0;" edge="1" parent="WIyWlLk6GJQsqaUBKTNV-1" source="Gp5mDcWNHUmIccvILRRk-27" target="Gp5mDcWNHUmIccvILRRk-17">
          <mxGeometry relative="1" as="geometry" />
        </mxCell>
        <mxCell id="Gp5mDcWNHUmIccvILRRk-78" style="edgeStyle=orthogonalEdgeStyle;rounded=0;orthogonalLoop=1;jettySize=auto;html=1;exitX=0;exitY=0.5;exitDx=0;exitDy=0;" edge="1" parent="WIyWlLk6GJQsqaUBKTNV-1" source="Gp5mDcWNHUmIccvILRRk-35" target="Gp5mDcWNHUmIccvILRRk-16">
          <mxGeometry relative="1" as="geometry" />
        </mxCell>
        <mxCell id="Gp5mDcWNHUmIccvILRRk-79" style="edgeStyle=orthogonalEdgeStyle;rounded=0;orthogonalLoop=1;jettySize=auto;html=1;exitX=0;exitY=0.5;exitDx=0;exitDy=0;" edge="1" parent="WIyWlLk6GJQsqaUBKTNV-1" source="Gp5mDcWNHUmIccvILRRk-47" target="Gp5mDcWNHUmIccvILRRk-17">
          <mxGeometry relative="1" as="geometry" />
        </mxCell>
        <mxCell id="Gp5mDcWNHUmIccvILRRk-80" style="edgeStyle=orthogonalEdgeStyle;rounded=0;orthogonalLoop=1;jettySize=auto;html=1;exitX=0;exitY=0.5;exitDx=0;exitDy=0;entryX=1.02;entryY=0.798;entryDx=0;entryDy=0;entryPerimeter=0;" edge="1" parent="WIyWlLk6GJQsqaUBKTNV-1" source="Gp5mDcWNHUmIccvILRRk-37" target="Gp5mDcWNHUmIccvILRRk-17">
          <mxGeometry relative="1" as="geometry" />
        </mxCell>
        <mxCell id="Gp5mDcWNHUmIccvILRRk-81" style="edgeStyle=orthogonalEdgeStyle;rounded=0;orthogonalLoop=1;jettySize=auto;html=1;exitX=0;exitY=0.5;exitDx=0;exitDy=0;entryX=1;entryY=0.5;entryDx=0;entryDy=0;" edge="1" parent="WIyWlLk6GJQsqaUBKTNV-1" source="Gp5mDcWNHUmIccvILRRk-59" target="Gp5mDcWNHUmIccvILRRk-19">
          <mxGeometry relative="1" as="geometry" />
        </mxCell>
        <mxCell id="Gp5mDcWNHUmIccvILRRk-82" style="edgeStyle=orthogonalEdgeStyle;rounded=0;orthogonalLoop=1;jettySize=auto;html=1;exitX=0;exitY=0.5;exitDx=0;exitDy=0;" edge="1" parent="WIyWlLk6GJQsqaUBKTNV-1" source="Gp5mDcWNHUmIccvILRRk-55" target="Gp5mDcWNHUmIccvILRRk-19">
          <mxGeometry relative="1" as="geometry" />
        </mxCell>
        <mxCell id="Gp5mDcWNHUmIccvILRRk-83" style="edgeStyle=orthogonalEdgeStyle;rounded=0;orthogonalLoop=1;jettySize=auto;html=1;exitX=1;exitY=0.5;exitDx=0;exitDy=0;" edge="1" parent="WIyWlLk6GJQsqaUBKTNV-1" source="Gp5mDcWNHUmIccvILRRk-9" target="FRSX6BakKpZdlfgSIoeK-11">
          <mxGeometry relative="1" as="geometry" />
        </mxCell>
      </root>
    </mxGraphModel>
  </diagram>
</mxfile>
